<?xml version="1.0" encoding="UTF-8"?>
<!DOCTYPE svg PUBLIC "-//W3C//DTD SVG 1.1//EN" "http://www.w3.org/Graphics/SVG/1.1/DTD/svg11.dtd">
<svg xmlns="http://www.w3.org/2000/svg" version="1.1" width="370px" height="350px" style="shape-rendering:geometricPrecision; text-rendering:geometricPrecision; image-rendering:optimizeQuality; fill-rule:evenodd; clip-rule:evenodd" xmlns:xlink="http://www.w3.org/1999/xlink">
<g><path style="opacity:1" fill="#fdfefe" d="M -0.5,-0.5 C 122.833,-0.5 246.167,-0.5 369.5,-0.5C 369.5,116.167 369.5,232.833 369.5,349.5C 246.167,349.5 122.833,349.5 -0.5,349.5C -0.5,232.833 -0.5,116.167 -0.5,-0.5 Z"/></g>
<g><path style="opacity:1" fill="#486c87" d="M 229.5,31.5 C 229.586,32.4959 229.252,33.3292 228.5,34C 258.505,64.2022 288.671,94.0355 319,123.5C 320.404,125.394 321.57,127.394 322.5,129.5C 320.006,132.826 317.006,135.66 313.5,138C 314.416,138.278 315.082,138.778 315.5,139.5C 310.373,143.351 304.706,144.351 298.5,142.5C 298.577,141.25 299.244,140.417 300.5,140C 294.563,136.847 289.563,132.514 285.5,127C 278.5,122.009 272.5,116.009 267.5,109C 266,107.833 264.5,106.667 263,105.5C 262.617,106.056 262.117,106.389 261.5,106.5C 238.036,83.3751 214.369,60.2084 190.5,37C 186.5,35 182.5,35 178.5,37C 143.806,72.028 108.806,106.695 73.5,141C 68.6862,143.893 63.6862,144.226 58.5,142C 54.3851,139.552 50.5518,136.719 47,133.5C 45.872,131.655 45.372,129.655 45.5,127.5C 46.9217,127.291 48.255,126.791 49.5,126C 84.6667,89.5 120.5,53.6667 157,18.5C 158.511,16.1384 160.011,13.8051 161.5,11.5C 175.679,-0.920797 190.679,-1.75413 206.5,9C 214.393,16.3947 222.06,23.8947 229.5,31.5 Z"/></g>
<g><path style="opacity:1" fill="#5d778c" d="M 229.5,31.5 C 261.132,62.6318 292.632,93.9652 324,125.5C 324.766,132.256 321.932,136.923 315.5,139.5C 315.082,138.778 314.416,138.278 313.5,138C 317.006,135.66 320.006,132.826 322.5,129.5C 321.57,127.394 320.404,125.394 319,123.5C 288.671,94.0355 258.505,64.2022 228.5,34C 229.252,33.3292 229.586,32.4959 229.5,31.5 Z"/></g>
<g><path style="opacity:1" fill="#748b9d" d="M 161.5,11.5 C 160.011,13.8051 158.511,16.1384 157,18.5C 120.5,53.6667 84.6667,89.5 49.5,126C 48.255,126.791 46.9217,127.291 45.5,127.5C 82.9153,88.5837 120.915,50.0837 159.5,12C 160.094,11.5357 160.761,11.369 161.5,11.5 Z"/></g>
<g><path style="opacity:1" fill="#496d87" d="M 246.5,147.5 C 246.491,149.308 246.991,150.975 248,152.5C 254.523,157.39 260.023,163.224 264.5,170C 260.701,174.801 256.534,179.301 252,183.5C 251.517,184.448 251.351,185.448 251.5,186.5C 248.616,188.805 245.616,188.971 242.5,187C 235.909,180.578 229.576,174.078 223.5,167.5C 223.649,166.448 223.483,165.448 223,164.5C 212.833,155 203,145.167 193.5,135C 191.831,133.331 189.831,132.498 187.5,132.5C 185.5,131.167 183.5,131.167 181.5,132.5C 180.577,131.697 179.577,131.53 178.5,132C 161.694,148.806 144.86,165.64 128,182.5C 127.517,183.448 127.351,184.448 127.5,185.5C 125.394,188.36 122.728,189.026 119.5,187.5C 119.918,186.778 120.584,186.278 121.5,186C 114.259,180.995 108.259,174.829 103.5,167.5C 128.965,141.535 154.632,115.701 180.5,90C 182.695,88.627 185.029,88.2937 187.5,89C 207.089,108.756 226.755,128.256 246.5,147.5 Z"/></g>
<g><path style="opacity:1" fill="#7a8f9f" d="M 298.5,142.5 C 285.425,131.089 273.091,119.089 261.5,106.5C 262.117,106.389 262.617,106.056 263,105.5C 264.5,106.667 266,107.833 267.5,109C 272.5,116.009 278.5,122.009 285.5,127C 289.563,132.514 294.563,136.847 300.5,140C 299.244,140.417 298.577,141.25 298.5,142.5 Z"/></g>
<g><path style="opacity:1" fill="#6b8193" d="M 187.5,132.5 C 189.831,132.498 191.831,133.331 193.5,135C 203,145.167 212.833,155 223,164.5C 223.483,165.448 223.649,166.448 223.5,167.5C 210.904,156.249 198.904,144.582 187.5,132.5 Z"/></g>
<g><path style="opacity:1" fill="#73899c" d="M 181.5,132.5 C 164.11,150.891 146.11,168.558 127.5,185.5C 127.351,184.448 127.517,183.448 128,182.5C 144.86,165.64 161.694,148.806 178.5,132C 179.577,131.53 180.577,131.697 181.5,132.5 Z"/></g>
<g><path style="opacity:1" fill="#748b9d" d="M 246.5,147.5 C 252.745,153.242 258.911,159.242 265,165.5C 267,168.167 267,170.833 265,173.5C 260.631,178.037 256.131,182.37 251.5,186.5C 251.351,185.448 251.517,184.448 252,183.5C 256.534,179.301 260.701,174.801 264.5,170C 260.023,163.224 254.523,157.39 248,152.5C 246.991,150.975 246.491,149.308 246.5,147.5 Z"/></g>
<g><path style="opacity:1" fill="#486c87" d="M 98.5,214.5 C 98.1961,215.15 97.8627,215.817 97.5,216.5C 101.167,219.5 104.5,222.833 107.5,226.5C 110.298,228.13 112.965,229.963 115.5,232C 116.337,233.011 116.67,234.178 116.5,235.5C 119.607,237.242 122.941,238.575 126.5,239.5C 126.351,240.552 126.517,241.552 127,242.5C 134.032,248.869 141.032,255.203 148,261.5C 148.383,260.944 148.883,260.611 149.5,260.5C 160.297,270.127 170.963,279.961 181.5,290C 183.5,290.667 185.5,290.667 187.5,290C 204.041,274.951 220.375,259.617 236.5,244C 261.222,221.945 286.556,200.611 312.5,180C 325.767,170.197 340.1,162.197 355.5,156C 369.597,155.362 372.097,160.528 363,171.5C 353.571,181.422 344.404,191.422 335.5,201.5C 329.176,204.978 323.843,209.812 319.5,216C 315.765,217.335 313.265,219.835 312,223.5C 310.719,223.381 309.552,223.881 308.5,225C 308.957,225.414 309.291,225.914 309.5,226.5C 301.65,234.725 292.65,244.058 282.5,254.5C 281.209,255.527 281.209,256.527 282.5,257.5C 273.2,268.468 263.2,278.801 252.5,288.5C 251.577,287.697 250.577,287.53 249.5,288C 231.5,307.333 212.833,326 193.5,344C 194.416,344.278 195.082,344.778 195.5,345.5C 186.734,348.762 178.4,347.929 170.5,343C 165.63,338.298 160.963,333.465 156.5,328.5C 156.918,327.778 157.584,327.278 158.5,327C 110.9,279.902 64.5662,231.736 19.5,182.5C 15.8711,177.44 11.8711,172.607 7.5,168C 6.55198,167.517 5.55198,167.351 4.5,167.5C 0.611679,163.861 0.611679,160.028 4.5,156C 12.3088,155.376 19.6422,157.043 26.5,161C 52.6574,175.999 76.6574,193.833 98.5,214.5 Z"/></g>
<g><path style="opacity:1" fill="#6d8497" d="M 103.5,167.5 C 108.259,174.829 114.259,180.995 121.5,186C 120.584,186.278 119.918,186.778 119.5,187.5C 114.126,183.11 108.959,178.444 104,173.5C 102.458,171.435 102.291,169.435 103.5,167.5 Z"/></g>
<g><path style="opacity:1" fill="#4c6d88" d="M 182.5,178.5 C 183.873,178.343 185.207,178.51 186.5,179C 197.642,190.475 209.142,201.642 221,212.5C 221.635,214.635 221.301,216.635 220,218.5C 215.468,223.367 210.634,227.867 205.5,232C 203.5,232.667 201.5,232.667 199.5,232C 194.948,226.945 189.948,222.445 184.5,218.5C 179.351,222.815 174.351,227.315 169.5,232C 167.5,232.667 165.5,232.667 163.5,232C 158.667,227.167 153.833,222.333 149,217.5C 148.333,215.5 148.333,213.5 149,211.5C 160.489,200.837 171.656,189.837 182.5,178.5 Z"/></g>
<g><path style="opacity:1" fill="#667d90" d="M 4.5,167.5 C 5.55198,167.351 6.55198,167.517 7.5,168C 11.8711,172.607 15.8711,177.44 19.5,182.5C 64.5662,231.736 110.9,279.902 158.5,327C 157.584,327.278 156.918,327.778 156.5,328.5C 121.089,293.258 86.2559,257.591 52,221.5C 35.9293,203.603 20.0959,185.603 4.5,167.5 Z"/></g>
<g><path style="opacity:1" fill="#677f92" d="M 335.5,201.5 C 318.509,220.824 300.842,239.491 282.5,257.5C 281.209,256.527 281.209,255.527 282.5,254.5C 292.65,244.058 301.65,234.725 309.5,226.5C 309.291,225.914 308.957,225.414 308.5,225C 309.552,223.881 310.719,223.381 312,223.5C 313.265,219.835 315.765,217.335 319.5,216C 323.843,209.812 329.176,204.978 335.5,201.5 Z"/></g>
<g><path style="opacity:1" fill="#647d90" d="M 98.5,214.5 C 107.607,223.089 117.274,231.256 127.5,239C 135.311,245.644 142.644,252.811 149.5,260.5C 148.883,260.611 148.383,260.944 148,261.5C 141.032,255.203 134.032,248.869 127,242.5C 126.517,241.552 126.351,240.552 126.5,239.5C 122.941,238.575 119.607,237.242 116.5,235.5C 116.67,234.178 116.337,233.011 115.5,232C 112.965,229.963 110.298,228.13 107.5,226.5C 104.5,222.833 101.167,219.5 97.5,216.5C 97.8627,215.817 98.1961,215.15 98.5,214.5 Z"/></g>
<g><path style="opacity:1" fill="#647d92" d="M 252.5,288.5 C 233.752,307.914 214.752,326.914 195.5,345.5C 195.082,344.778 194.416,344.278 193.5,344C 212.833,326 231.5,307.333 249.5,288C 250.577,287.53 251.577,287.697 252.5,288.5 Z"/></g>
</svg>
